<?xml version="1.0" encoding="UTF-8" standalone="no"?>
<!-- Created with Inkscape (http://www.inkscape.org/) -->
<svg xmlns:inkscape="http://www.inkscape.org/namespaces/inkscape" xmlns:rdf="http://www.w3.org/1999/02/22-rdf-syntax-ns#" xmlns="http://www.w3.org/2000/svg" xmlns:xlink="http://www.w3.org/1999/xlink" xmlns:ns1="http://sozi.baierouge.fr" xmlns:cc="http://creativecommons.org/ns#" xmlns:dc="http://purl.org/dc/elements/1.1/" xmlns:sodipodi="http://sodipodi.sourceforge.net/DTD/sodipodi-0.dtd" id="svg2" sodipodi:docname="Новый документ 1" viewBox="0 0 2289.3 612.12" version="1.1" inkscape:version="0.48.0 r9654">
  <sodipodi:namedview id="base" bordercolor="#666666" inkscape:pageshadow="2" inkscape:window-y="-8" fit-margin-left="0" pagecolor="#ffffff" fit-margin-top="0" inkscape:window-maximized="1" inkscape:zoom="0.35" inkscape:window-x="-8" inkscape:window-height="1018" showgrid="false" borderopacity="1.0" inkscape:current-layer="layer1" inkscape:cx="1172.3565" inkscape:cy="657.44817" fit-margin-right="0" fit-margin-bottom="0" inkscape:window-width="1920" inkscape:pageopacity="0.0" inkscape:document-units="px"/>
  <g id="layer1" inkscape:label="Layer 1" inkscape:groupmode="layer" transform="translate(485 -548.81)">
    <path id="path2996" sodipodi:nodetypes="ccccccccccccccccssccsccccccsccccccccccccscccccccccccccccccccccccccccccccccccccccccssssccccccccc" style="fill:#000000" inkscape:connector-curvature="0" d="m562.12 548.81v83.844h-4.0268s-3.9054 105.65-4.375 120.44h-36.281l24.5 14.156h60.375l-0.15625 2.9688-17.844 102.84h-8.5938l-12.156 50h-17.844l-3.5625 30-19.312 44.312h-104.12l-10.5-16.812v-8.5625c0-7.5837-4.2845-13.938-10-13.938h-6.8125-17.125-6.7812c-3.4477 0-6.3763 2.3133-8.1562 5.8125l-26.85-18.89-2.0312-1.4375-2.875 4.0625 2.0312 1.4688 28.125 19.812c-0.16313 1.0083-0.25 2.0531-0.25 3.125v8.5625l-10.531 16.812h-63.406l-22.844 32.125h-92.875l-31.406 43.562c-13.096 18.156-36.219 33.578-58.594 32.875l-545.69-17.156-17.156 56.438 89.281 15.719h2041.4l158.56-162.88c-121.87 7.5278-246.2 17.531-375.72 17.531h-123.19l8.3438-37.469-36.531-31.031 45.094-27.562 3.0313-7.0625 116.16-69.219-3.5313-5.0312-115.6 69.67-7.625-0.0937-52.281 27.969-54.812-30h-13.625l-59.594 42.438 8.0626 49.5 12.437 17.781h-120.25l-59.437-103 6.4375-24.031-23.094-23.062h-63.281l-13.125 7.5625h-23.531v-37.875h-5.4688l-1.7812-8.5 18.66-7.93c4.3371-11.283-6.4531-36.302-19.438-39.125l-31.844 16.656c-3.4039 14.362 4.3559 28.526 13.125 34.906-0.50624 1.3823-1.0045 2.7508-1.5 4h-7.5625v37.875h-140.84l-25.875-102.84-0.15625-2.9688h60.938v-14.156h-61.75l-0.4375-7.875 28.562-36.438h-4.125v-35.812c0-26.322-21.209-47.531-47.531-47.531h-5.4688c-26.322 0-47.5 21.209-47.5 47.531v35.812h-3.5938l28.562 36.438-0.4375 7.875h-28.562l-7.375-120.44h-3.817v-83.844z"/>
  </g>
  <metadata>
    <rdf:RDF>
      <cc:Work>
        <dc:format>image/svg+xml</dc:format>
        <dc:type rdf:resource="http://purl.org/dc/dcmitype/StillImage"/>
        <cc:license rdf:resource="http://creativecommons.org/licenses/publicdomain/"/>
        <dc:publisher>
          <cc:Agent rdf:about="http://openclipart.org/">
            <dc:title>Openclipart</dc:title>
          </cc:Agent>
        </dc:publisher>
      </cc:Work>
      <cc:License rdf:about="http://creativecommons.org/licenses/publicdomain/">
        <cc:permits rdf:resource="http://creativecommons.org/ns#Reproduction"/>
        <cc:permits rdf:resource="http://creativecommons.org/ns#Distribution"/>
        <cc:permits rdf:resource="http://creativecommons.org/ns#DerivativeWorks"/>
      </cc:License>
    </rdf:RDF>
  </metadata>
</svg>
