<?xml version="1.0" encoding="utf-8"?>
<!-- Generator: Adobe Illustrator 15.1.0, SVG Export Plug-In . SVG Version: 6.00 Build 0)  -->
<!DOCTYPE svg PUBLIC "-//W3C//DTD SVG 1.1//EN" "http://www.w3.org/Graphics/SVG/1.1/DTD/svg11.dtd">
<svg version="1.1" id="Calque_1" xmlns="http://www.w3.org/2000/svg" xmlns:xlink="http://www.w3.org/1999/xlink" x="0px" y="0px"
	 width="850.39px" height="850.39px" viewBox="0 0 850.39 850.39" enable-background="new 0 0 850.39 850.39" xml:space="preserve">
<polygon fill="#FCBE00" points="118.571,251.429 157.333,343.5 118.571,437.143 164.465,437.143 203.667,343.5 164.465,251.429 "/>
<polygon fill="#FCBE00" points="179.571,251.429 218.333,343.5 179.571,437.143 222.465,437.143 261.667,343.5 222.465,251.429 "/>
<polygon fill="#FCBE00" points="235.905,251.429 274.667,343.5 235.905,437.143 275.798,437.143 315,343.5 275.798,251.429 "/>
<polygon fill="#FCBE00" points="287.905,251.429 326.667,343.5 287.905,437.143 324.798,437.143 364,343.5 324.798,251.429 "/>
<polygon fill="#FCBE00" points="335.572,251.429 374.334,343.5 335.572,437.143 369.465,437.143 408.667,343.5 369.465,251.429 "/>
<polygon fill="#FCBE00" points="379.238,251.429 418,343.5 379.238,437.143 410.132,437.143 449.334,343.5 410.132,251.429 "/>
<polygon fill="#FCBE00" points="419.571,251.429 458.334,343.5 419.571,437.143 447.465,437.143 486.667,343.5 447.465,251.429 "/>
<polygon fill="#FCBE00" points="458.238,251.428 497.001,343.5 458.238,437.143 483.132,437.143 522.334,343.5 483.132,251.428 "/>
<polygon fill="#FCBE00" points="492.905,251.428 531.668,343.5 492.905,437.143 514.799,437.143 554.001,343.5 514.799,251.428 "/>
<polygon fill="#FCBE00" points="523.453,251.428 562.216,343.499 523.453,437.143 542.347,437.143 581.549,343.499 542.347,251.428 
	"/>
<polygon fill="#FCBE00" points="551.787,251.428 590.55,343.5 551.787,437.143 567.681,437.143 606.883,343.5 567.681,251.428 "/>
<polygon fill="#FCBE00" points="576.787,251.428 615.55,343.499 576.787,437.143 589.681,437.143 628.883,343.499 589.681,251.428 
	"/>
<polygon fill="#FCBE00" points="599.121,251.428 637.884,343.499 599.121,437.143 609.015,437.143 648.217,343.499 609.015,251.428 
	"/>
<polygon fill="#FCBE00" points="617.787,251.428 656.55,343.499 617.787,437.143 624.681,437.143 663.883,343.499 624.681,251.428 
	"/>
<polygon fill="#FCBE00" points="632.787,251.428 671.55,343.5 632.787,437.143 636.681,437.143 675.883,343.5 636.681,251.428 "/>
<polygon fill="#FCBE00" points="644.12,251.428 682.883,343.5 644.12,437.143 645.014,437.143 684.216,343.5 645.014,251.428 "/>
</svg>
